<svg width="0" height="0" class="hidden">
  <symbol xmlns="http://www.w3.org/2000/svg" viewBox="0 0 168 76" id="icon-cloud">
    <path d="M138.2 66.7l-.2-.1-.2.1c-14.5 5.5-33.3 8.9-53.8 8.9-23.1 0-44.1-4.2-59.2-11.1C9.6 57.6.5 48.2.5 38s9.1-19.6 24.3-26.4C39.9 4.7 60.9.5 84 .5s44.1 4.2 59.2 11.1c15.2 6.9 24.3 16.2 24.3 26.4 0 6.8-4.1 13.2-11.3 18.8-.3.2-.4.5-.4.8 0 .3.1.6.2.9.2.6.7 1.3 1.2 2.1.7 1.1 1.7 2.3 2.8 3.6.5.6 1 1.2 1.4 1.8 1.5 2 3 4 3.9 5.8.4.9.7 1.7.8 2.3.1.5 0 1-.2 1.3-13.9-1.9-22.2-5.9-27.7-8.7z"></path>
  </symbol>
  <symbol xmlns="http://www.w3.org/2000/svg" viewBox="0 0 19.8 96.5" id="icon-angle">
    <path d="M19.3.2L.5 48.2l18.8 48.1" fill="none"></path>
  </symbol>
  <symbol xmlns="http://www.w3.org/2000/svg" viewBox="0 0 6.9 14" id="icon-facebook">
    <path d="M4.5 14V7.6h2l.3-2.5H4.5V3c0-.2.1-.3.2-.4.2-.1.3-.2.5-.2.2-.1.3-.1.5 0H7V.1C6.3 0 5.7 0 5.1 0 3.3 0 2 1.2 2 3.3v1.8H0v2.5h2V14h2.5z" fill-rule="evenodd" clip-rule="evenodd"></path>
  </symbol>
  <symbol xmlns="http://www.w3.org/2000/svg" viewBox="0 0 20 11.9" id="icon-vk">
    <path d="M9.8 11.8H11c.2 0 .4-.1.6-.2.1-.2.2-.4.2-.5 0 0 0-1.7.7-1.9.7-.2 1.7 1.6 2.7 2.3.4.3.8.5 1.3.4h2.7s1.4-.1.7-1.2c-.5-.9-1.2-1.7-2-2.4-1.7-1.6-1.4-1.4.6-4.1 1.2-1.7 1.7-2.7 1.6-3.2-.1-.1-.3-.2-.5-.3-.2-.1-.4-.1-.6 0h-3c-.1 0-.3 0-.4.1l-.3.3c-.3.8-.7 1.7-1.1 2.4-1.4 2.4-1.9 2.5-2.1 2.3-.5-.3-.4-1.4-.4-2.1 0-2.3.3-3.2-.7-3.5-.4-.1-.9-.2-1.4-.2-.8-.1-1.7 0-2.5.3-.3.2-.6.6-.4.6.3 0 .7.2.9.5.2.4.3.9.3 1.4 0 0 .2 2.7-.4 3-.5.2-1-.3-2.2-2.4-.4-.7-.8-1.5-1.1-2.3 0-.1-.1-.3-.2-.4-.2-.1-.3-.1-.5-.2H.6C.4.5.2.6 0 .7v.6s2.2 5.4 4.8 8.2c.6.7 1.4 1.3 2.2 1.7.9.4 1.8.6 2.8.6z"
      fill-rule="evenodd" clip-rule="evenodd"></path>
  </symbol>
  <symbol xmlns="http://www.w3.org/2000/svg" viewBox="0 0 18 15" id="icon-twitter">
    <path d="M18 1.8c-.7.3-1.4.5-2.1.6.8-.5 1.4-1.2 1.6-2.1-.7.4-1.5.7-2.3.9-.3-.4-.8-.7-1.2-.9-.5-.2-1-.3-1.5-.3s-1 .1-1.4.3c-.5.2-.9.5-1.2.8-.4.4-.7.8-.9 1.2-.1.5-.2 1-.2 1.5 0 .3 0 .6.1.9-1.5-.1-3-.5-4.3-1.2C3.3 2.8 2.2 1.9 1.3.7.9 1.3.8 1.9.8 2.6c0 .6.1 1.2.4 1.8s.7 1 1.2 1.4c-.6 0-1.2-.2-1.7-.5 0 .9.3 1.7.8 2.4.6.7 1.3 1.1 2.2 1.3-.3.1-.7.2-1 .2-.2 0-.5 0-.7-.1.2.7.7 1.4 1.3 1.9.6.5 1.4.7 2.1.8-.8.6-1.6 1.1-2.6 1.3-.8.2-1.8.3-2.8.2C1.7 14.4 3.7 15 5.7 15c6.8 0 10.5-5.8 10.5-10.8v-.5c.7-.5 1.3-1.2 1.8-1.9z"
      fill-rule="evenodd" clip-rule="evenodd"></path>
  </symbol>
  <symbol xmlns="http://www.w3.org/2000/svg" viewBox="0 0 14 15" id="icon-instagram">
    <path d="M7 1.4h2.8c.4 0 .9.1 1.3.3.3.1.6.3.8.6.2.2.4.5.5.9.2.4.2.9.2 1.4v6c0 .5-.1.9-.2 1.4-.1.3-.3.6-.5.9-.2.2-.5.4-.8.6-.4.2-.9.3-1.3.3H4.2c-.4 0-.9-.1-1.3-.3-.3-.1-.6-.3-.8-.6-.2-.2-.4-.5-.5-.9-.2-.4-.2-.9-.2-1.4v-6c0-.5.1-.9.2-1.4.1-.3.3-.6.5-.9.2-.3.5-.5.8-.6.4-.2.9-.3 1.3-.3H7zM7 0H4.1C3.5.1 3 .2 2.4.4c-.5.2-.9.5-1.2.9-.4.3-.7.8-.8 1.3-.2.6-.4 1.2-.4 1.8v6.2c0 .6.1 1.2.3 1.8.2.5.4 1 .8 1.3.3.4.8.7 1.2.9.7.2 1.2.3 1.8.4h5.8c.6 0 1.2-.1 1.7-.3.5-.2.9-.5 1.2-.9.4-.4.6-.8.8-1.3.2-.6.3-1.2.3-1.8.1-.9.1-1.2.1-3.2s0-2.3-.1-3.1c0-.6-.1-1.2-.3-1.8-.2-.5-.4-.9-.8-1.3-.3-.4-.8-.7-1.2-.9C11 .2 10.5.1 9.9 0H7zm0 3.7c-.8-.1-1.5.1-2.2.5-.7.4-1.2 1-1.5 1.7-.4.6-.5 1.4-.4 2.2.1.8.5 1.5 1 2 .5.6 1.2 1 2 1.1.8.2 1.5.1 2.3-.2.7-.3 1.3-.8 1.8-1.4.4-.6.7-1.4.7-2.2 0-1-.3-1.9-1-2.7-.8-.6-1.7-1-2.7-1zM7 10c-.5 0-1-.1-1.4-.3-.5-.3-.8-.7-1-1.1-.2-.5-.3-1-.2-1.5.1-.5.3-1 .6-1.3.3-.4.8-.6 1.3-.7.5-.1 1-.1 1.5.1s.9.5 1.2.9.3.9.3 1.4c0 .3 0 .6-.2.9 0 .3-.2.6-.4.8-.2.3-.5.5-.8.6-.3.1-.6.2-.9.2zm4.6-6.5c0 .2-.1.3-.2.5-.1.1-.2.2-.4.3s-.3.1-.5 0c-.2 0-.3-.1-.4-.2-.1-.2-.2-.4-.2-.5 0-.2 0-.3.1-.5 0-.1.1-.3.3-.4.1-.1.3-.1.5-.1s.4.1.6.3c.1.1.2.4.2.6z"
      fill-rule="evenodd" clip-rule="evenodd"></path>
  </symbol>
  <symbol xmlns="http://www.w3.org/2000/svg" viewBox="0 0 9 16" id="icon-ok">
    <path d="M4.5 8.2c.8 0 1.6-.2 2.3-.6.7-.4 1.2-1.1 1.6-1.8.3-.8.4-1.6.3-2.4s-.6-1.6-1.1-2.2C7 .7 6.3.3 5.5.1 4.7-.1 3.8 0 3.1.3c-.8.3-1.5.8-1.9 1.5-.5.7-.7 1.5-.7 2.3C.5 5.2.9 6.2 1.7 7c.7.8 1.7 1.2 2.8 1.2zm0-5.8c.3 0 .7.1 1 .3.3.2.5.4.6.7.1.3.2.7.1 1 0 .4-.2.7-.4.9-.3.3-.6.4-.9.5-.3.1-.7 0-1-.1-.3-.1-.6-.3-.8-.6-.2-.3-.3-.6-.3-1s.2-.9.5-1.2c.3-.3.8-.5 1.2-.5zm1.6 9.2c.8-.2 1.6-.5 2.3-1 .3-.2.5-.4.5-.8.2-.3.1-.6-.1-.8-.1-.2-.2-.3-.3-.4-.1-.1-.2-.1-.4-.2h-.5c-.2 0-.3.1-.4.2-.8.5-1.7.8-2.7.8-1 0-1.9-.3-2.7-.8-.1-.1-.3-.2-.4-.2H.9c-.2 0-.3.1-.4.2-.1.1-.2.2-.3.4-.2.2-.2.5-.2.9.1.3.3.6.5.8.7.5 1.5.8 2.3 1L.6 14c-.2.2-.3.5-.3.9 0 .3.1.6.3.9.1.1.2.2.4.3.2-.2.3-.1.5-.1s.3 0 .5-.1c.1-.1.3-.1.4-.3l2.2-2.3 2.2 2.3c.1.1.2.2.4.3 0 0 .2.1.3.1.2 0 .3 0 .5-.1.1-.1.3-.1.4-.3.2-.2.3-.5.3-.9s-.1-.6-.3-.9l-2.3-2.2z"
      fill-rule="evenodd" clip-rule="evenodd"></path>
  </symbol>
  <symbol xmlns="http://www.w3.org/2000/svg" viewBox="0 0 16 12" id="icon-youtube">
    <path d="M15.7 1.9c-.1-.4-.3-.8-.6-1.1-.3-.3-.7-.5-1.1-.6-4-.3-8-.3-12 0-.4.1-.8.3-1.1.6-.3.3-.5.7-.6 1.1-.4 2.7-.4 5.4 0 8.1.1.4.3.8.6 1.1.3.3.7.5 1.1.6 4 .3 8 .3 12 0 .4-.1.8-.3 1.1-.6.3-.3.5-.7.6-1.1.4-2.7.4-5.4 0-8.1zM6.3 8.3V3.6L10.5 6 6.3 8.3z"
      fill-rule="evenodd" clip-rule="evenodd"></path>
  </symbol>
  <symbol xmlns="http://www.w3.org/2000/svg" viewBox="0 0 18 17" id="icon-check">
    <path d="M10.8 5.3c-2.2 2.1-4.1 4.6-5.6 7.2l-.4-.9C4 9.8 3.2 8.9 2.6 8.9c-.5.1-1 .2-1.5.5-.4.2-.8.6-1.1 1 .6.2 1.1.6 1.5 1.1.6.8 1.1 1.7 1.4 2.7l.4.8c.3.6.5 1.3.7 2 .5-.4 1.1-.8 1.6-1.2l1-.6c1.4-2.9 3.2-5.6 5.2-8.1 1.8-2.4 3.9-4.5 6.2-6.4l-.5-.7c-2.4 1.5-4.7 3.3-6.7 5.3z"
      fill-rule="evenodd" clip-rule="evenodd"></path>
  </symbol>
</svg>