<svg xmlns="http://www.w3.org/2000/svg" width="51.4" height="40"><style type="text/css">.st0{fill-rule:evenodd;clip-rule:evenodd;fill:#FFFFFF;}</style><path d="M24 .9c1.3-.7 2.7-1 4.2-.9 1.2.1 16.1 5.6 17.7 6.5l-11-2.8L24 .9zm21.9 5.6c.8.3 2 .2 3.2.2h1.2c.8.1 1.1.6 1.1.9v17.1c0 .6-.2 2.1-4.9 2v.1c.3-.1-1.7.9-1.9.9-1.5-1.9-3.1-3.7-16.4-20.1-.2-.2-1.1-.9-2.3-.6-1.4.7-6.5 3.2-9.5 4.9-.4.1-2.7.8-3.6-1-.3-1.7.9-2.5.8-2.5.3-.2 9.7-7.2 10.4-7.6l10.9 2.8 11 2.9zM42.4 29v.2h.1c1.2 1.8-.4 3.6-1.2 3.9-1.1.3-2.1.5-3.5-.8.1 1.6-.4 2.7-1.4 3.1-1.5.6-2.7-.2-3.6-.8.7 3.7-3.4 4.7-5.1 2.3.5 3.6-3.4 3.4-4.2 3 2.8-4.4-1.2-7.2-1.6-7.5-.4-.3-1.2-.7-1.6-.6-.9-2.1-3.3-2.1-2.8-2 0-1.7-1-3.3-3.3-3.3v-.1H14c.1-1.6-1.9-5.7-6.9-3-.5.4-2.4 2.3-2.8 3C3.4 28 .1 29.1 0 26V7.6c.1-.5.3-.8 1-.9h7c.8 0 2.3 0 2.6.3 0 .4-.5 1.6-.7 2.6-.9 4.5 1.9 6.1 5.9 5.2 3-.7 6.5-3 10.5-5.1h.1v.1l16 19.2zm-30.8-.1c4-2.1 4.1 3 3.5 3.2 2.2-.8 3.8.9 3.4 2.4-.8-.1 4.7-1.5 3.4 2.7-1 3-3.9 2.3-3.9 2.3-.6-.3-1.2-1.1-1.2-1.9-3.4 1.3-4.1-1.8-3.9-2.6-.4.1-3.8 1.4-3.7-2.7-.3.1-.4.1-.7.2-5.7 2-3.3-8.5 2.3-6.8 1.5.7.9 2.6.9 2.6-.1.1-.1.3-.1.6z" class="st0"/></svg>