<?xml version="1.0" encoding="utf-8"?>
<!-- Generator: Adobe Illustrator 23.0.5, SVG Export Plug-In . SVG Version: 6.00 Build 0)  -->
<svg version="1.1" id="Слой_1" xmlns="http://www.w3.org/2000/svg" xmlns:xlink="http://www.w3.org/1999/xlink" x="0px" y="0px"
	 width="54.9px" height="48px" viewBox="0 0 54.9 48" style="enable-background:new 0 0 54.9 48;" xml:space="preserve">
<style type="text/css">
	.st0{fill:#FFFFFF;}
</style>
<path class="st0" d="M13.7,14.9H3.4V16h1.1v26.3H3.4v1.1h10.3v-1.1h-1.1V16h1.1V14.9z"/>
<path class="st0" d="M26.3,14.9H16V16h1.1v26.3H16v1.1h10.3v-1.1h-1.1V16h1.1V14.9z"/>
<path class="st0" d="M38.9,14.9V16h-1.1v26.3h1.1v1.1H28.6v-1.1h1.1V16h-1.1v-1.1H38.9z"/>
<path class="st0" d="M51.4,14.9H41.1V16h1.1v26.3h-1.1v1.1h10.3v-1.1h-1.1V16h1.1V14.9z"/>
<path class="st0" d="M0,11.4L27.4,0l27.4,11.4v2.3H0V11.4z"/>
<path class="st0" d="M2.3,44.6h50.3l0.6,1.1h1.7V48H0v-2.3h1.7L2.3,44.6z"/>
</svg>
