<svg xmlns="http://www.w3.org/2000/svg" width="49.2" height="53.7"><style type="text/css">.st0{fill:#FFFFFF;}</style><path d="M16 49.2c0-1.3 1-2.3 2.3-2.3h25.1c1.3 0 2.3 1 2.3 2.3 0 1.3-1 2.3-2.3 2.3H18.3c-1.3 0-2.3-1.1-2.3-2.3zM12.6 52c0-.9.8-1.7 1.7-1.7h33.1c.9 0 1.7.8 1.7 1.7 0 .9-.8 1.7-1.7 1.7H14.3c-.9 0-1.7-.7-1.7-1.7zM23.3.7c.9-.9 2.5-.9 3.4 0 .9.9.9 2.5 0 3.4L13.2 17.7c-.9.9-2.5.9-3.4 0-.9-.9-.9-2.5 0-3.4L23.3.7zM44.5 21.9c.9-.9 2.5-.9 3.4 0 .9.9.9 2.5 0 3.4L34.4 38.9c-.9.9-2.5.9-3.4 0-.9-.9-.9-2.5 0-3.4l13.5-13.6zM35.6 8.8c1.2-1.2 3.1-1.2 4.2 0 1.2 1.2 1.2 3.1 0 4.2L5.1 47.8C3.9 49 2 49 .9 47.8c-1.2-1.2-1.2-3.1 0-4.2L35.6 8.8zM26.7 5.8c.5-.5 1.2-.5 1.7 0l14.4 14.4c.5.5.5 1.2 0 1.7L31 33.8c-.5.5-1.2.5-1.7 0L14.9 19.4c-.5-.5-.5-1.2 0-1.7L26.7 5.8z" class="st0"/></svg>