<svg xmlns="http://www.w3.org/2000/svg" id="Слой_1" width="60.6" height="48" x="0" y="0" version="1.1" xml:space="preserve"><style>.st0{fill:#fff}</style><path d="M13.7 30.3c0-.9.8-1.7 1.7-1.7h29.7c.9 0 1.7.8 1.7 1.7s-.7 1.7-1.7 1.7H15.4c-.9 0-1.7-.8-1.7-1.7z" class="st0"/><path d="M24 14.9c0-1.3 1-2.3 2.3-2.3h8c1.3 0 2.3 1 2.3 2.3v13.7c0 1.3-1 2.3-2.3 2.3h-8c-1.3 0-2.3-1-2.3-2.3V14.9zM24 38.3a2.9 2.9 0 015.8 0V48H24v-9.7zM30.9 38.3a2.9 2.9 0 015.8 0V48H31v-9.7zM35.4 5.1c0 2.8-2.3 5.1-5.1 5.1s-5.1-2.3-5.1-5.1S27.4 0 30.3 0c2.8 0 5.1 2.3 5.1 5.1zM10.3 9.7A5.14 5.14 0 010 9.7c0-2.8 2.3-5.1 5.1-5.1s5.2 2.3 5.2 5.1zM0 20.6c0-1.9 1.5-3.4 3.4-3.4h3.4c1.9 0 3.4 1.5 3.4 3.4v15c0 1.3.7 2.5 1.9 3.1l8.4 4.2v2.9c0 1.3-1 2.3-2.3 2.3h-.8c-1.2 0-2.2-.8-2.4-2-.1-.9-.8-1.6-1.6-1.9L2.9 40.6h-.1C1.2 40.2 0 38.8 0 37.2V20.6zM50.3 9.7c0 2.8 2.3 5.1 5.1 5.1s5.1-2.3 5.1-5.1-2.3-5.1-5.1-5.1-5.1 2.3-5.1 5.1zM60.6 20.6c0-1.9-1.5-3.4-3.4-3.4h-3.4c-1.9 0-3.4 1.5-3.4 3.4v15c0 1.3-.7 2.5-1.9 3.1L40 42.9v2.9c0 1.3 1 2.3 2.3 2.3h.8c1.2 0 2.2-.8 2.4-2 .1-.9.8-1.6 1.6-1.9l10.6-3.5h.1c1.6-.3 2.8-1.7 2.8-3.4V20.6z" class="st0"/></svg>