<?xml version="1.0" encoding="utf-8"?>
<!-- Generator: Adobe Illustrator 23.0.5, SVG Export Plug-In . SVG Version: 6.00 Build 0)  -->
<svg version="1.1" id="Слой_1" xmlns="http://www.w3.org/2000/svg" xmlns:xlink="http://www.w3.org/1999/xlink" x="0px" y="0px"
	 width="54.9px" height="51.4px" viewBox="0 0 54.9 51.4" style="enable-background:new 0 0 54.9 51.4;" xml:space="preserve">
<style type="text/css">
	.st0{fill:#FFFFFF;}
	.st1{fill:none;stroke:#FFFFFF;stroke-width:3;}
</style>
<path class="st0" d="M2.3,30.3v14.3c0,3.8,3.1,6.9,6.9,6.9h36.6c3.8,0,6.9-3.1,6.9-6.9V30.3C51.4,31.3,49.8,32,48,32H32
	c0,1.9-2.7,3.4-4.6,3.4c-1.9,0-4.6-1.5-4.6-3.4h-16C5.1,32,3.5,31.3,2.3,30.3z"/>
<path class="st0" d="M0,16.8c0-3.6,3.1-6.5,6.9-6.5H48c3.8,0,6.9,2.9,6.9,6.5v6.5c0,3.6-3.1,6.5-6.9,6.5H6.9C3.1,29.9,0,27,0,23.3
	V16.8z"/>
<path class="st0" d="M30.9,29.9c0,1.8-1.5,3.3-3.4,3.3c-1.9,0-3.4-1.5-3.4-3.3c0-1.8,1.5-3.3,3.4-3.3C29.3,26.6,30.9,28.1,30.9,29.9
	z"/>
<circle class="st1" cx="27.4" cy="10.3" r="8.8"/>
</svg>
