<?xml version="1.0" encoding="utf-8"?>
<!-- Generator: Adobe Illustrator 23.0.5, SVG Export Plug-In . SVG Version: 6.00 Build 0)  -->
<svg version="1.1" id="Слой_1" xmlns="http://www.w3.org/2000/svg" xmlns:xlink="http://www.w3.org/1999/xlink" x="0px" y="0px"
	 width="38.9px" height="48px" viewBox="0 0 38.9 48" style="enable-background:new 0 0 38.9 48;" xml:space="preserve">
<style type="text/css">
	.st0{fill-rule:evenodd;clip-rule:evenodd;fill:#FFFFFF;}
	.st1{fill:#FFFFFF;}
</style>
<path class="st0" d="M0,3.4C0,1.5,1.5,0,3.4,0h32c1.9,0,3.4,1.5,3.4,3.4v41.1c0,1.9-1.5,3.4-3.4,3.4h-32C1.5,48,0,46.5,0,44.6V3.4z
	 M8,22.9h4.2v4H8V22.9z M14.2,22.9h4.2v4h-4.2V22.9z M24.6,22.9h-4.2v4h4.2V22.9z M26.7,22.9h4.2v4h-4.2V22.9z M12.2,28.9H8v4h4.2
	V28.9z M14.2,28.9h4.2v4h-4.2V28.9z M24.6,28.9h-4.2v4h4.2V28.9z M26.7,28.9h4.2v4h-4.2V28.9z M12.2,34.9H8v4h4.2V34.9z M14.2,34.9
	h4.2v4h-4.2V34.9z M24.6,34.9h-4.2v4h4.2V34.9z M26.7,34.9h4.2v4h-4.2V34.9z M32,5.7H6.9v9.1H32V5.7z"/>
<path class="st1" d="M27.4,9.1h2.3v2.3h-2.3V9.1z"/>
<path class="st1" d="M22.9,9.1h2.3v2.3h-2.3V9.1z"/>
<path class="st1" d="M18.3,9.1h2.3v2.3h-2.3V9.1z"/>
</svg>
