<?xml version="1.0" encoding="utf-8"?>
<!-- Generator: Adobe Illustrator 23.0.5, SVG Export Plug-In . SVG Version: 6.00 Build 0)  -->
<svg version="1.1" id="Слой_1" xmlns="http://www.w3.org/2000/svg" xmlns:xlink="http://www.w3.org/1999/xlink" x="0px" y="0px"
	 width="67.4px" height="56px" viewBox="0 0 67.4 56" style="enable-background:new 0 0 67.4 56;" xml:space="preserve">
<style type="text/css">
	.st0{fill-rule:evenodd;clip-rule:evenodd;fill:#FFFFFF;}
	.st1{fill:#FFFFFF;}
</style>
<path class="st0" d="M44.6,0H22.9v14.3L18.3,24h30.9l-4.6-9.7V0z M41.1,3.4H26.3v9.1h14.9V3.4z"/>
<path class="st0" d="M26.3,32H4.6v14.3L0,56h30.9l-4.6-9.7V32z M22.9,35.4H8v9.1h14.9V35.4z"/>
<path class="st0" d="M62.9,32H41.1v14.3L36.6,56h30.9l-4.6-9.7V32z M59.4,35.4H44.6v9.1h14.9V35.4z"/>
<path class="st1" d="M32,24h3.4v19.4H32V24z"/>
<path class="st1" d="M25.1,40h17.1v3.4H25.1V40z"/>
</svg>
