<svg xmlns="http://www.w3.org/2000/svg" width="54.9" height="51.4"><style type="text/css">.st0{fill:#FFFFFF;} .st1{fill:none;stroke:#FFFFFF;stroke-width:3;}</style><path d="M2.3 30.3v14.3c0 3.8 3.1 6.9 6.9 6.9h36.6c3.8 0 6.9-3.1 6.9-6.9V30.3c-1.3 1-2.9 1.7-4.7 1.7H32c0 1.9-2.7 3.4-4.6 3.4-1.9 0-4.6-1.5-4.6-3.4h-16c-1.7 0-3.3-.7-4.5-1.7zM0 16.8c0-3.6 3.1-6.5 6.9-6.5H48c3.8 0 6.9 2.9 6.9 6.5v6.5c0 3.6-3.1 6.5-6.9 6.5H6.9C3.1 29.9 0 27 0 23.3v-6.5zM30.9 29.9c0 1.8-1.5 3.3-3.4 3.3s-3.4-1.5-3.4-3.3c0-1.8 1.5-3.3 3.4-3.3 1.8 0 3.4 1.5 3.4 3.3z" class="st0"/><circle cx="27.4" cy="10.3" r="8.8" class="st1"/></svg>