<svg xmlns="http://www.w3.org/2000/svg" width="38.9" height="45.7"><style type="text/css">.st0{fill:#FFFFFF;} .st1{fill-rule:evenodd;clip-rule:evenodd;fill:#FFFFFF;}</style><path d="M7.7 0h24.6l-.5.5c-2.7 1-4.9 4.4-4.9 7.6v2.7H0V7.6C0 3.4 3.5 0 7.7 0z" class="st0"/><path d="M38.9 7.6c0-2.8-2.3-5.4-4.9-5.4s-4.8 2.7-4.8 8V13H5.4v29.4h17.3v3.3l4.3-3.8 4.3 3.8v-3.3h7.6V7.6zm-6.5 8.7H11.8v2.2h20.5v-2.2zm0 5.5H11.8V24h20.5v-2.2zM28 27.1c.3.5.8.8 1.4.6.9-.3 1.8.6 1.5 1.5-.2.5.1 1.1.6 1.4.8.4.8 1.7 0 2.1-.5.3-.8.9-.6 1.4.3.9-.6 1.8-1.5 1.5-.5-.2-1.1.1-1.4.6-.4.8-1.6.8-2.1 0-.3-.5-.8-.8-1.4-.6-.9.3-1.8-.6-1.5-1.5.2-.5-.1-1.1-.6-1.4-.8-.4-.8-1.7 0-2.1.5-.3.8-.9.6-1.4-.3-.9.6-1.8 1.5-1.5.5.2 1.1-.1 1.4-.6.5-.9 1.7-.9 2.1 0zm1.6 11.5h-5.2v3.3l2.6-2.2 2.6 2.2v-3.3z" class="st1"/></svg>