<?xml version="1.0" encoding="utf-8"?>
<!-- Generator: Adobe Illustrator 23.0.5, SVG Export Plug-In . SVG Version: 6.00 Build 0)  -->
<svg version="1.1" id="Слой_1" xmlns="http://www.w3.org/2000/svg" xmlns:xlink="http://www.w3.org/1999/xlink" x="0px" y="0px"
	 width="77px" height="84px" viewBox="0 0 77 84" style="enable-background:new 0 0 77 84;" xml:space="preserve">
<style type="text/css">
	.st0{fill-rule:evenodd;clip-rule:evenodd;fill:#B9D433;}
</style>
<path class="st0" d="M63.3,16.9c0.1-0.5,0.4-0.8,0.9-0.8v0.1l0.8,0.1v0.1h0.4l0.1,0.3h0.3v0.1h0.3V17h0.3v0.1h0.3v0.1H67v0.1h0.3
	l0.1,0.3h0.3l0.1,0.3h0.3l0.1,0.3l0.5,0.1l0.1,0.3h0.3l0.4,0.5h0.3l0.3,0.4h0.3c0,0.1,0.1,0.2,0.1,0.3h0.3l0.5,0.7h0.3l0.8,0.9
	l0.9,0.8c0,0.1,0.1,0.3,0.1,0.4l0.5,0.4v0.3l0.3,0.1c0,0.1,0.1,0.3,0.1,0.4h0.1v0.3l0.3,0.1c0,0.2,0.1,0.4,0.1,0.5l0.3,0.1
	c0,0.2,0.1,0.4,0.1,0.5h0.1v0.3h0.1c0.1,0.3,0.2,0.5,0.3,0.8H76V27h0.1v0.4h0.1c0,0.3,0.1,0.6,0.1,0.9h0.1c0,0.4,0.1,0.8,0.1,1.2
	c0.6,2.1,0.2,5-0.4,6.7v0.7h-0.1v0.4H76v0.3h-0.1V38h-0.1c-0.1,0.4-0.2,0.8-0.3,1.2h-0.1c-0.1,0.3-0.2,0.5-0.3,0.8h-0.1v0.3h-0.1
	v0.4h-0.1v0.3h-0.1v0.3h-0.1v0.3h-0.1v0.3h-0.1V42H74v0.3l-0.3,0.1v0.3l-0.5,0.4v0.1h-0.3c0,0.1-0.1,0.2-0.1,0.3h-0.4v0.1l-1.8,0.1
	v-0.1h-0.4v-0.1h-0.4v-0.1c-0.2-0.1-0.3-0.2-0.5-0.3v26.8c0,0.7-0.1,1.4-0.1,2.1H69v0.3h-0.1v0.4l-0.3,0.1v0.3l-0.3,0.1l-0.4,0.5
	l-0.5,0.1l-0.1,0.3l-0.8,0.1v0.1l-1.9-0.1v-0.1h-0.3v-0.1l-0.5-0.1l-0.1-0.3h-0.3v-0.1l-0.3-0.1v-0.3l-0.4-0.3
	c-0.7-1-0.5-3.1-0.5-4.7V53.4c0-2.3,0.1-5.1,0-7h-0.4V71h-0.1v0.9h-0.1v0.4h-0.1v0.3h-0.1v0.3l-0.4,0.3v0.3l-0.3,0.1v0.1h-0.3
	l-0.1,0.3l-0.5,0.1v0.1h-0.3v0.1c-1.9,0.7-4.4-0.9-4.5-2.4c-0.4-0.5-0.3-2.5-0.3-3.5V43.1c0-0.3,0.1-1.1,0.1-1.2h-0.1
	c0-0.3-0.1-0.5-0.1-0.8h-0.1v-0.9h-0.1V24l-3-0.5v-0.1h-0.3v-0.1l-1.5-0.5v12.2c0,3,0.2,5.1-1.1,6.8h-0.1l-0.3,0.4h-0.3l-0.3,0.4
	l-1.5,0.5H8.4c-1.4,0-2.7,0-3.5-0.5l-0.3-0.4H4.3l-0.1-0.3l-0.5-0.4l-0.1-0.5l-0.3-0.1v-0.3H3.1v-0.4H3v-0.5H2.8V3.5H3V3h0.1
	l0.3-0.8h0.1V1.9h0.1l0.1-0.4c0.4-0.1,0.6-0.4,0.9-0.7V0.7l1.2-0.4V0.1h0.3V0H46v0.1h0.3v0.1h0.4v0.1H47v0.1h0.3l0.1,0.3h0.3
	l0.5,0.7l0.3,0.1v0.3l0.4,0.3c0.7,1.2,0.5,3.4,0.5,5.2v7.9l0.8,0.7v0.1h0.3l0.1,0.3h0.3l0.3,0.4h0.3l0.1,0.3h0.3l0.1,0.3h0.3v0.1
	l0.5,0.1v0.1h0.4v0.1h0.4V18h2.2v-0.1h0.4v-0.1l0.7-0.1v-0.1h0.3v-0.1h0.4l0.1-0.3l0.5-0.1v-0.1h0.3v-0.1l0.7-0.1v-0.1h0.3v-0.1
	l0.9-0.1L61,17l0.4,0.1v0.3l0.4,0.3v0.1h0.4c0.2-0.3,0.2-0.1,0.4-0.3C63,17.3,62.7,17.1,63.3,16.9z M61.8,0.3l2.3,0.3v0.1h0.4v0.1
	h0.5v0.1h0.3l0.1,0.3h0.3v0.1l0.8,0.3l0.5,0.7h0.3l0.1,0.3h0.1v0.3l0.7,0.5v0.3l0.3,0.1l0.1,0.4h0.1v0.4H69v0.3h0.1v0.3
	c0.6,1.1,0.9,3.1,0.4,4.6v0.5c-1.1,2.8-2.9,4.5-5.9,5.4h-3v-0.1h-0.5v-0.1h-0.4v-0.1h-0.4V15H59v-0.1h-0.3v-0.1h-0.3v-0.1h-0.3v-0.1
	h-0.3l-0.1-0.3h-0.3L57.4,14h-0.3l-0.4-0.5l-0.4-0.3v-0.3l-0.7-0.5v-0.3h-0.1v-0.3h-0.1v-0.3h-0.1v-0.3h-0.1c0-0.2-0.1-0.4-0.1-0.5
	h-0.1v-0.5h-0.1V9.8h-0.1c0-1-0.1-2-0.1-3h0.1c0.1-0.6,0.2-1.2,0.3-1.7H55V4.8l0.3-0.1V4.4h0.1V4.2h0.1V3.9h0.1V3.6l0.5-0.4V3
	l0.7-0.5L57,2.1h0.3l0.5-0.7l0.7-0.1l0.1-0.3h0.3V0.9h0.3V0.8l0.9-0.1V0.5h0.4V0.4C61,0.3,61.5,0.5,61.8,0.3z M6.1,39.9L6.5,40v0.1
	h0.4v0.1h29.6c3.1,0,6.5,0.1,9.3-0.1l0.7-0.8V20.5c-0.2-0.1-0.2-0.2-0.5-0.3V20h-0.3l-0.9-1.1l-0.3-0.1v-0.3l-0.9-0.8v-0.3L42.9,17
	v-0.3l-0.4-0.3v-0.3L42.1,16v-0.3l-0.5-0.4V15l-0.3-0.1l-0.1-0.4h-0.1v-0.3l-0.3-0.1l-0.3-0.8L40.1,13v-0.3H40v-0.3h-0.1v-0.3
	l-0.3-0.1c-0.1-0.3-0.2-0.5-0.3-0.8c-0.3-0.5-1-1.6-0.7-2.7h0.1V8.2h0.1V7.9H39V7.6l1.2-1.1l2.2-0.1v0.1h0.4v0.1h0.3L43.2,7h0.3
	l0.4,0.5H44v0.3l0.3,0.1c0.1,0.3,0.2,0.5,0.3,0.8l0.3,0.1c0.1,0.3,0.2,0.5,0.3,0.8l0.3,0.1c0,0.2,0.1,0.4,0.1,0.5l0.3,0.1v0.3h0.1
	V11H46l0.1,0.4h0.3V3.8c-0.4-0.2-0.3-0.5-0.8-0.7C45.2,2.7,43.7,3,43.1,3h-33C8.9,3,7.4,2.9,6.3,3.1C6.2,3.3,6,3.6,5.8,3.8v35.6h0.1
	L6.1,39.9z M31.6,11.1c0.1,0.4,0.5,1.1,0.3,1.7h-0.1c-0.1,0.3-0.2,0.7-0.3,1.1c0.3,0.2,0.4,0.5,0.7,0.7l0.4,0.1v0.1
	c0.3,0.3,0.6,0.7,1.1,0.8c0.3-0.3,0.5-0.2,0.9-0.4v-0.1h0.5V15c1.3,0,2.2,2,2.2,3.5c-0.2,0.2-0.2,0.2-0.3,0.5
	c-0.6,0.2-1,0.6-1.8,0.8c0,0.4,0.1,0.9,0.1,1.3h0.1c0,0.4-0.1,0.9-0.1,1.3c0.8,0.3,1.8,0.5,2,1.3h0.1c0,0.4-0.1,0.9-0.1,1.3h-0.1
	c-0.1,0.4-0.2,0.8-0.3,1.2l-0.3,0.1L36.6,27h-0.3v0.1c-0.2,0.1-0.3,0.1-0.7,0.1c-0.3,0.3-1.4-0.3-1.9-0.4L33,27.9
	c-0.3,0.4-0.8,0.5-0.9,1.1c0.4,0.3,0.4,0.7,0.5,1.3c0.1,0,0.1,0.1,0.1,0.2c0,0.1,0,0.2,0,0.2c-0.1,0.3-0.3,0.6-0.4,0.9
	c-0.6,0.1-0.9,0.4-1.4,0.7h-0.3v0.1h-0.3v0.1H29c-0.2-0.2-0.1-0.2-0.4-0.3l-0.8-1.6h-0.9c-0.3,0.3-1.4,0.1-1.8,0
	c-0.1,0.7-0.7,1.9-1.2,2.1h-1.2v-0.1L22,32.6v-0.1h-0.4v-0.1h-0.4c0-0.1-0.1-0.2-0.1-0.3h-0.3l-0.5-0.9c0.2-0.7,0.4-1.3,0.5-2
	c-0.5-0.3-1.6-1.2-1.9-1.7c-0.8,0.3-1.2,0.7-2.3,0.7c-0.2-0.2-0.2-0.2-0.5-0.3c-0.2-0.8-1.7-2.4-0.9-3.2c0.2-0.7,1-1.1,1.8-1.2V22
	h-0.1c0-0.4,0.1-0.9,0.1-1.3l-0.4-0.1v-0.1h-0.3v-0.1h-0.4v-0.1c-0.5-0.2-0.8-0.2-0.9-0.8c-0.1-0.1-0.3-0.9-0.1-1.2l0.9-2h0.3
	c0.6-0.7,1.8,0.1,2.6,0.1l1.2-1.5l0.4-0.3V14c-0.3-0.3-0.7-1.6-0.4-2.1l0.3-0.1c0.2-0.3,0.5-0.5,0.8-0.7h0.3v-0.1h0.4v-0.1l0.5-0.1
	v-0.1H23c0.2,0.2,0.6,0.3,0.8,0.5v0.3h0.1c0.1,0.2,0.4,1.1,0.5,1.2h0.4c0.3-0.3,1.7-0.1,2.3-0.1c0.1-0.4,0.1-0.7,0.3-1.1h0.1V11h0.1
	l0.1-0.4l0.4-0.1v-0.1h0.4v-0.1C29.4,10,30.9,11,31.6,11.1z M25.1,15.8l-1.9,0.7c0,0.1-0.1,0.2-0.1,0.3h-0.3c0,0.1-0.1,0.2-0.1,0.3
	h-0.3l-0.3,0.4l-0.5,0.4v0.3l-0.4,0.3v0.3h-0.1c-0.1,0.3-0.2,0.5-0.3,0.8h-0.1v0.4h-0.1v0.5h-0.1c-0.1,0.4-0.1,2.1,0,2.4h0.1v0.4
	h0.1v0.4h0.1V24h0.1v0.3h0.1v0.3l0.3,0.1V25l0.4,0.3v0.3l0.4,0.1l0.5,0.7H23c0,0.1,0.1,0.2,0.1,0.3l1.2,0.4v0.1l1.9,0.3v-0.1h1.2
	v-0.1l1.2-0.3c0-0.1,0.1-0.2,0.1-0.3l0.8-0.3c0-0.1,0.1-0.2,0.1-0.3l0.8-0.7v-0.3l0.5-0.4v-0.3h0.1c0.1-0.3,0.2-0.5,0.3-0.8h0.1
	c0-0.3,0.1-0.6,0.1-0.9h0.1c0-0.9-0.1-1.9-0.1-2.8h-0.1v-0.3h-0.1l-0.4-1.2l-0.4-0.3v-0.3l-0.3-0.1L29.8,17h-0.3
	c0-0.1-0.1-0.2-0.1-0.3C28.3,16,27.1,15.8,25.1,15.8z M62,19.1c-0.2,1.4-0.4,3.3-0.8,4.7c0,0.6-0.1,1.2-0.1,1.7h-0.1
	c0,0.7-0.1,1.3-0.1,2c-0.3,1.1-0.5,2.2-0.5,3.4c0.5,0.3,0.5,0.6,0.8,1.1l0.4,0.3v0.3l0.4,0.3l0.1,0.4h0.3c0-0.2,0.1-0.4,0.3-0.5h0.1
	v-0.3l0.3-0.1v-0.3l0.5-0.4v-0.3l0.3-0.1v-0.3h0.1l0.1-0.4c-0.3-0.4-0.1-1.2-0.3-1.7h-0.1v-1.1c-0.3-1-0.4-2.4-0.7-3.4v-1.1h-0.1
	v-0.9h-0.1v-0.8h-0.1v-0.9c-0.2-0.5-0.3-1-0.3-1.5H62z M70,28.4V36l0.4-0.1c0.1-0.5,0.2-1,0.3-1.5h0.1c0-0.8,0.1-1.5,0.1-2.3
	c0-0.1,0.1-0.3,0.1-0.4h-0.1c0-0.6-0.1-1.3-0.1-1.9h-0.1v-0.3h-0.1c-0.1-0.3-0.2-0.7-0.3-1.1H70z M18.5,58l-0.4,0.1v0.1l-0.4,0.1
	l-0.1,0.3h-0.3l-0.1,0.3c-0.4,0.3-2.9,0.9-3.8,0.7v-0.1h-0.7v-0.1l-0.8-0.1V59h-0.3v-0.1l-0.8-0.3l-0.3-0.4h-0.3l-0.4-0.5l-0.4-0.3
	v-0.3L9,56.9l-0.3-0.8H8.6v-0.3H8.5L8.4,55H8.2c-0.1-0.4-0.3-1.9-0.1-2.4h0.1v-0.7h0.1v-0.4h0.1v-0.3h0.1v-0.4h0.1v-0.3h0.1v-0.3
	l0.3-0.1v-0.3l0.4-0.3v-0.3l0.4-0.1l0.5-0.7h0.3l0.1-0.3l0.5-0.1V48l0.5-0.1v-0.1h0.5v-0.1H13v-0.1c0.9-0.3,3.3,0.2,3.8,0.4V48H17
	v0.1h0.3l0.1,0.3h0.3l0.1,0.3h0.3l0.5,0.7l0.3,0.1v0.3l0.4,0.3c0,0.2,0.1,0.4,0.1,0.5l0.3,0.1l0.5,1.6c0.2,0.7-0.1,2.9-0.3,3.4h-0.1
	l-0.3,0.8h-0.1v0.3l-0.3,0.1v0.3C18.9,57.5,18.7,57.4,18.5,58z M36.7,47.5h2.6v0.1l1.4,0.3l0.1,0.3l0.5,0.1l0.3,0.4h0.3l0.7,0.8
	l0.4,0.3v0.3l0.3,0.1l0.1,0.5l0.3,0.1v0.4h0.1v0.4h0.1v0.5H44v0.9h0.1c0,0.6-0.1,1.2-0.1,1.7h-0.1v0.4h-0.1v0.5h-0.1v0.3l-0.3,0.1
	L43.1,57l-0.3,0.1v0.3l-0.5,0.4l-0.1,0.3h-0.3l-0.4,0.5h-0.3v0.1L40.4,59v0.1H40v0.1h-0.5v0.1h-0.7v0.1c-0.9,0.3-2.1-0.2-2.6-0.4
	h-0.5V59l-0.5-0.1v-0.1h-0.3l-0.1-0.3h-0.3L34,58h-0.3l-0.1-0.3h-0.1v-0.3L33,57v-0.3l-0.3-0.1c0-0.2-0.1-0.4-0.1-0.7h-0.1v-0.3
	h-0.1v-0.4h-0.1c-0.1-0.2-0.4-2-0.3-2.3H32v-0.8h0.1v-0.4h0.1v-0.5h0.1V51h0.1l0.3-0.8l0.4-0.3v-0.3L34,49l0.1-0.3h0.3l0.1-0.3h0.3
	l0.1-0.3h0.3V48h0.3v-0.1h0.4v-0.1l0.8-0.1V47.5z M14.9,60.7h0.3c0.2-0.3,0.3-0.3,0.4-0.7c0.7,0,1.7,0.4,2.2,0.7l0.1,0.3l0.8,0.3
	l0.1,0.3H19l0.1,0.3l0.5,0.1l0.3,0.4h0.3l0.1,0.3h0.3l0.7,0.8h0.3l2.3,2.4V66l0.4,0.3l0.3,0.8l0.3,0.1v0.3H25v0.3h0.1v0.4h0.1
	c0,0.2,0.1,0.4,0.1,0.5h0.1v0.5h0.1v0.3h0.1c0,0.4,0.1,0.9,0.1,1.3l0.4-0.1c0-1.7,0.9-3.1,1.6-4.2v-0.3l0.3-0.1v-0.3l0.5-0.4v-0.3
	l0.8-0.7v-0.3l0.3-0.1V64h0.3l0.1-0.4l0.4-0.1l0.1-0.3h0.3v-0.3h0.3c0.3-0.5,1-0.7,1.5-1.1c1-0.7,2.3-1.7,3.8-1.9
	c0.2,0.2,0.1,0.2,0.4,0.3v0.3c0.5,0.3,0.5,0.7,1.2,0.8c0.2-0.4,1.1-1.3,1.6-1.3v0.1c0.2,0.1,0.9,0.2,1.1,0.3v0.1h0.3v0.1h0.3
	l0.1,0.3h0.3v0.1h0.3v0.1h0.3v0.1h0.3l0.3,0.4l0.5,0.1l0.1,0.3h0.3l0.3,0.4h0.3l0.5,0.7h0.3l0.3,0.4h0.3l0.1,0.4l0.5,0.3v0.3
	l0.9,0.8v0.3l0.4,0.3v0.3l0.4,0.3l0.1,0.5l0.3,0.1v0.3h0.1v0.3h0.1V68H49l0.1,0.5h0.1v0.5h0.1v0.3h0.1V70h0.1v0.7h0.1v1.3H50
	c0,0.4-0.1,0.9-0.1,1.3h-4.7v-2.1l-0.5-1.5h-0.3v3.6h-6.1l0.1-0.4h0.1l0.1-0.4l0.3-0.1v-0.3l0.3-0.1v-0.3h0.1l0.3-0.4
	c-0.3-0.4-0.1-1.2-0.3-1.7h-0.1v-1.1H39v-0.8h-0.1V67h-0.1V66c-0.3-1.2-0.5-2.4-0.5-3.6l-0.4,0.1c0,0.9-0.1,1.8-0.4,2.7
	c-0.1,0.9-0.2,1.8-0.3,2.7H37V69c-0.3,0.9-0.4,1.8-0.4,2.7c0.3,0.2,1.1,1.4,1.2,1.7h-6.1v-3.8h-0.1v0.1c-0.7,0.6-0.7,2.4-0.7,3.6
	h-9.6c0-1.4-0.2-3.3-0.8-3.9c-0.1,0.9-0.1,1.9-0.1,2.8V73h0.1v0.1h-0.1v0.3h-6.1v-0.1c0.3-0.2,0.3-0.5,0.5-0.8l0.5-0.4l0.1-0.5h0.1
	c0.1-0.3-0.2-1.4-0.3-1.6v-1.1c-0.3-1-0.4-2.4-0.7-3.4v-1.1h-0.1c-0.2-0.6,0.1-1.4-0.3-1.7c-0.2-0.2,0-0.1-0.3-0.1
	c0,1-0.3,2.4-0.5,3.2v0.9h-0.1v0.9h-0.1v1.1h-0.1v0.7H13v0.9c0,0.1-0.3,1.1-0.3,1.2h0.1c0.2,0.8,1,1.1,1.2,1.9H8v-3.8H7.7l-0.1,0.5
	H7.4v0.5c-0.3,0.9-0.5,1.7-0.3,2.7H2.3c0-1.8,0.2-3.2,0.7-4.4v-0.4h0.1v-0.3h0.1l0.4-1.2L3.9,67l0.1-0.5l0.3-0.1l0.1-0.5l0.7-0.5
	l0.1-0.4l0.4-0.1v-0.3l0.9-0.8l0.1-0.3H7l0.5-0.7l0.5-0.1l0.3-0.4h0.3l0.3-0.4l0.5-0.1l0.3-0.4l0.8-0.3v-0.1h0.3v-0.1h0.3l0.1-0.3
	h0.4c0.4-0.2,0.6-0.4,1.2-0.4c0.2,0.4,1.1,1.3,1.6,1.3C14.6,61,14.8,61,14.9,60.7z M70,84H0v-8.6c0.5-0.2,1.4-0.1,2.2-0.1h67.7
	c0.3,0.7,0.1,1.9,0.1,2.8V84z"/>
</svg>
