<svg xmlns="http://www.w3.org/2000/svg" width="85.6" height="84"><style type="text/css">.st0{fill-rule:evenodd;clip-rule:evenodd;fill:#07BDEA;}</style><path d="M61.1 48.2c.3 0 .5 0 .8 0v32.5c0 4.2 8 4.6 8 0V23.2l12.8-5c4.4-1.7 2.9-2.9 2-3.9L73.4 2.6c-2.2-2.3-4.7-1.9-5.7.1-.2.5-.4.9-.4 1.3-.5-1.2-1.4-2.1-2.4-2.9C63.7.4 62.4 0 61.1 0c-1.8 0-3.6.7-4.8 2-.6.6-1 1.3-1.4 2 0-.4-.1-.8-.4-1.3-1-2-3.5-2.5-5.7-.1L37.5 14.3c-.8.9-2.3 2.2 2 3.9l12.8 5v57.5c0 4.6 8 4.2 8 0V48.2c.2 0 .5 0 .8 0zm6.7-42.7c.4.5.9 1.1 1.5 1.7l6.6 6.6-9.9 3.4c-1 .6-2.2 6.2-2.6 7.7-.1.3-.1.5-.1.3-.3 0-.5.1-.8.2.2-.5 1.2-4.4 0-4.5l-.7-.8c-.1-.3.1-.6.4-1 .3-.5 1-1 1-1.9-.3 0-1.3-.1-2.2-.1-1 0-1.9 0-2.2.1 0 .9.6 1.4 1 1.9.3.4.5.7.4 1l-.7.9c-1.2.2-.2 4 0 4.5-.2-.1-.5-.2-.7-.2 0 .1 0 0-.1-.3-.3-1.5-1.6-7.1-2.6-7.7l-9.9-3.4 6.6-6.6c.6-.6 1.2-1.1 1.5-1.7-.1.4-.1.9-.1 1.4 0 1.4.4 2.7 1.2 3.8.8 1.1 1.8 2 3.1 2.5s2.6.7 3.9.4c1.3-.3 2.5-.9 3.5-1.9 1-1 1.6-2.2 1.9-3.5.1-1 .1-1.9 0-2.8zM20.5 0c1.4 0 2.7.4 3.8 1.2 1.1.8 2 1.8 2.5 3.1s.7 2.6.4 4c-.3 1.3-.9 2.6-1.9 3.5-1 1-2.2 1.6-3.5 1.9-1.3.3-2.7.1-3.9-.4s-2.3-1.4-3.1-2.5C14 9.7 13.6 8.3 13.6 7c0-1.8.7-3.6 2-4.9C16.9.7 18.7 0 20.5 0zm8.3 67c0-8.7 0-17.4 0-26.6h-1.6c-4.3-.1-7.3-.6-9.2-1.5-1.1.4-2.3.1-2.7-.7C13.4 34 13 29.9 12 25.7v55.2c0 4 7.7 4.5 7.7 0 0-3.9 0-8.6 0-13.2 0-8.9 0-17.5 0-19.8.6-.1.5-.1.8 0 .2 0 .4 0 .7 0 0 5.1 0 9.8 0 13.9 0 8.9 0 15.4.1 18.5 0 4.5 7.6 5 7.6 0L28.8 67zm-4-39.1c-6-.5-7.9.5-8.9 3.5 0 0-.1-.3-.2-.6-.3-1.2-1.1-4.2-1.8-8.3.5-1.5 7.9-3 9.4-2.1.5 1.5 1 4.4 1.5 7.5zM9.7 14.3c-.5-.3-1-.6-1.8-1.1 1.3-1.8 2.4-3.2 3.3-4.4 2.3-2.9 3.4-4.2 2.6-6.2-.9-2.3-4-2.2-5.3-.5-1.8 2.3-3.2 4-4.4 5.5-5.4 6.4-5.7 6.8.9 11.5 3 1.9 6 3.3 6.5 3.3 0-1.9 1.6-2.9 3.5-3.5 4-1.3 5.9-1.6 7.9-1.7 1.7-.1 3.1 1.3 3.5 2.7.5 2.1 1 4.4 1.5 8.4l1.5.5c0-1.3 0-2.6 0-3.9v-1.6c.1 0 .2 0 .3 0h.2c.2 0 .3 0 .4 0 .3 0 .4 0 .6 0v8l-8-.6c-.9-.1-2-.3-2.9 0-.9.3-1.8 1.1-2 2.7-.3 2.5 1.2 3.6 3.4 3.7 2.6.2 4.5.4 6.1.5 2.6.2 4 .4 5.4.4 2.5 0 4.5-.9 4.5-4.6-.1-4.5-.1-6.4-.1-11-.6-4.3-4.1-6.3-7.9-6.3h-17c-1.4-1-2.1-1.4-2.7-1.8z" class="st0"/></svg>