<?xml version="1.0" encoding="utf-8"?>
<!-- Generator: Adobe Illustrator 23.0.5, SVG Export Plug-In . SVG Version: 6.00 Build 0)  -->
<svg version="1.1" id="Слой_1" xmlns="http://www.w3.org/2000/svg" xmlns:xlink="http://www.w3.org/1999/xlink" x="0px" y="0px"
	 width="85.6px" height="84px" viewBox="0 0 85.6 84" style="enable-background:new 0 0 85.6 84;" xml:space="preserve">
<style type="text/css">
	.st0{fill-rule:evenodd;clip-rule:evenodd;fill:#07BDEA;}
</style>
<path class="st0" d="M61.1,48.2c0.3,0,0.5,0,0.8,0v32.5c0,4.2,8,4.6,8,0V23.2l12.8-5c4.4-1.7,2.9-2.9,2-3.9L73.4,2.6
	c-2.2-2.3-4.7-1.9-5.7,0.1c-0.2,0.5-0.4,0.9-0.4,1.3c-0.5-1.2-1.4-2.1-2.4-2.9C63.7,0.4,62.4,0,61.1,0c-1.8,0-3.6,0.7-4.8,2
	c-0.6,0.6-1,1.3-1.4,2c0-0.4-0.1-0.8-0.4-1.3c-1-2-3.5-2.5-5.7-0.1L37.5,14.3c-0.8,0.9-2.3,2.2,2,3.9l12.8,5v57.5c0,4.6,8,4.2,8,0
	V48.2C60.5,48.2,60.8,48.2,61.1,48.2z M67.8,5.5c0.4,0.5,0.9,1.1,1.5,1.7l6.6,6.6l-9.9,3.4c-1,0.6-2.2,6.2-2.6,7.7
	c-0.1,0.3-0.1,0.5-0.1,0.3c-0.3,0-0.5,0.1-0.8,0.2c0.2-0.5,1.2-4.4,0-4.5l-0.7-0.8c-0.1-0.3,0.1-0.6,0.4-1c0.3-0.5,1-1,1-1.9
	c-0.3,0-1.3-0.1-2.2-0.1c-1,0-1.9,0-2.2,0.1c0,0.9,0.6,1.4,1,1.9c0.3,0.4,0.5,0.7,0.4,1L59.5,21c-1.2,0.2-0.2,4,0,4.5
	c-0.2-0.1-0.5-0.2-0.7-0.2c0,0.1,0,0-0.1-0.3c-0.3-1.5-1.6-7.1-2.6-7.7l-9.9-3.4l6.6-6.6c0.6-0.6,1.2-1.1,1.5-1.7
	c-0.1,0.4-0.1,0.9-0.1,1.4c0,1.4,0.4,2.7,1.2,3.8c0.8,1.1,1.8,2,3.1,2.5s2.6,0.7,3.9,0.4c1.3-0.3,2.5-0.9,3.5-1.9
	c1-1,1.6-2.2,1.9-3.5C67.9,7.3,67.9,6.4,67.8,5.5z M20.5,0c1.4,0,2.7,0.4,3.8,1.2c1.1,0.8,2,1.8,2.5,3.1c0.5,1.3,0.7,2.6,0.4,4
	c-0.3,1.3-0.9,2.6-1.9,3.5c-1,1-2.2,1.6-3.5,1.9c-1.3,0.3-2.7,0.1-3.9-0.4s-2.3-1.4-3.1-2.5c-0.8-1.1-1.2-2.5-1.2-3.8
	c0-1.8,0.7-3.6,2-4.9C16.9,0.7,18.7,0,20.5,0z M28.8,67c0-8.7,0-17.4,0-26.6l-0.7,0l-0.9,0c-4.3-0.1-7.3-0.6-9.2-1.5
	c-1.1,0.4-2.3,0.1-2.7-0.7C13.4,34,13,29.9,12,25.7l0,55.2c0,4,7.7,4.5,7.7,0c0-3.9,0-8.6,0-13.2v0c0-8.9,0-17.5,0-19.8
	c0.6-0.1,0.5-0.1,0.8,0c0.2,0,0.4,0,0.7,0c0,5.1,0,9.8,0,13.9v0c0,8.9,0,15.4,0.1,18.5c0,4.5,7.6,5,7.6,0L28.8,67z M24.8,27.9
	c-6-0.5-7.9,0.5-8.9,3.5c0,0-0.1-0.3-0.2-0.6c-0.3-1.2-1.1-4.2-1.8-8.3c0.5-1.5,7.9-3,9.4-2.1C23.8,21.9,24.3,24.8,24.8,27.9z
	 M9.7,14.3c-0.5-0.3-1-0.6-1.8-1.1c1.3-1.8,2.4-3.2,3.3-4.4c2.3-2.9,3.4-4.2,2.6-6.2c-0.9-2.3-4-2.2-5.3-0.5
	C6.7,4.4,5.3,6.1,4.1,7.6c-5.4,6.4-5.7,6.8,0.9,11.5c3,1.9,6,3.3,6.5,3.3c0-1.9,1.6-2.9,3.5-3.5c4-1.3,5.9-1.6,7.9-1.7
	c1.7-0.1,3.1,1.3,3.5,2.7c0.5,2.1,1,4.4,1.5,8.4l1.5,0.5c0-1.3,0-2.6,0-3.9l0-0.7l0-0.5l0-0.4c0.1,0,0.2,0,0.3,0l0.2,0
	c0.2,0,0.3,0,0.4,0c0.3,0,0.4,0,0.6,0v8l-8-0.6c-0.9-0.1-2-0.3-2.9,0c-0.9,0.3-1.8,1.1-2,2.7c-0.3,2.5,1.2,3.6,3.4,3.7
	c2.6,0.2,4.5,0.4,6.1,0.5l0,0c2.6,0.2,4,0.4,5.4,0.4c2.5,0,4.5-0.9,4.5-4.6c-0.1-4.5-0.1-6.4-0.1-11c-0.6-4.3-4.1-6.3-7.9-6.3H12.4
	C11,15.1,10.3,14.7,9.7,14.3z"/>
</svg>
